<svg width="16" height="16" viewBox="0 0 16 16" fill="none" xmlns="http://www.w3.org/2000/svg">
<g clip-path="url(#clip0)">
<path fill-rule="evenodd" clip-rule="evenodd" d="M0.0292969 2.24756V5.46095H4.94648L4.95028 5.46148L4.95418 5.46207C4.96216 5.46334 4.9745 5.46556 4.99055 5.46927C5.02267 5.47668 5.06955 5.49 5.12622 5.51335C5.23971 5.56011 5.39143 5.64661 5.54318 5.80532C5.84279 6.11864 6.15766 6.72946 6.15766 7.93278C6.15766 9.1391 5.86406 9.8173 5.58131 10.1936C5.43888 10.3832 5.29689 10.4993 5.19136 10.5677C5.13861 10.6019 5.09508 10.6242 5.06534 10.6377C5.05049 10.6444 5.0391 10.6489 5.03177 10.6517L5.03143 10.6518H2.62921V8.79794V8.67433H2.53636H0.122151V13.9888H5.41484V13.8652C5.41484 13.9888 5.41478 13.9888 5.41484 13.9888H5.41504H5.41633L5.41942 13.9887L5.42429 13.9886L5.43033 13.9884C5.43969 13.988 5.45308 13.9873 5.47025 13.9859C5.50457 13.9831 5.55394 13.9775 5.61579 13.9664C5.73944 13.9444 5.91326 13.9004 6.11662 13.8128C6.52353 13.6376 7.04917 13.2874 7.52632 12.5888C7.99059 11.909 8.22667 11.5327 8.38157 11.2314C8.50736 10.9866 8.57949 10.7912 8.67508 10.5321C8.69767 10.4709 8.72159 10.406 8.74778 10.3363C9.03932 9.56021 9.03569 9.03235 8.94307 7.306C8.89624 6.4336 8.80222 5.92597 8.71644 5.63243C8.7116 5.61581 8.70677 5.59985 8.70196 5.58454H10.2432V13.9888H11.5546L11.5657 13.9851L11.5432 13.8652C11.5657 13.9851 11.5657 13.9851 11.5657 13.9851L11.566 13.985L11.5665 13.9848L11.5678 13.9844L11.572 13.9829C11.5744 13.982 11.5774 13.9809 11.581 13.9795L11.5866 13.9773C11.5989 13.9724 11.6164 13.9649 11.6383 13.9545C11.6821 13.9337 11.7436 13.9009 11.8169 13.8521C11.9635 13.7546 12.1578 13.5927 12.3517 13.3346C12.5487 13.0723 12.6487 12.808 12.6991 12.6066C12.7243 12.5061 12.7371 12.4215 12.7436 12.3609C12.7468 12.3307 12.7485 12.3063 12.7494 12.2889C12.7498 12.2802 12.75 12.2733 12.7502 12.2682L12.7503 12.2619V12.2598V12.2591L12.7503 12.2587C12.7503 12.2587 12.7503 12.2585 12.6574 12.2585H12.7503V5.58454H15.176L15.187 5.58085L15.1645 5.46095C15.187 5.58085 15.187 5.58087 15.187 5.58085L15.1873 5.58076L15.1876 5.58065L15.1885 5.58035L15.191 5.57945C15.1931 5.57871 15.1958 5.57769 15.1992 5.57635C15.206 5.57369 15.2153 5.56977 15.227 5.56439C15.2502 5.55362 15.2824 5.53694 15.3207 5.51254C15.3971 5.46378 15.4984 5.38371 15.5994 5.25758C15.8039 5.0024 16.0002 4.56805 16.0002 3.85425C16.0002 3.13438 15.7767 2.72651 15.5439 2.50269C15.4295 2.39273 15.3155 2.32958 15.2301 2.29382C15.1873 2.27589 15.1514 2.26468 15.1256 2.25789C15.1128 2.25449 15.1024 2.25218 15.095 2.25068C15.0913 2.24993 15.0883 2.24938 15.0861 2.249L15.0834 2.24855L15.0825 2.2484L15.0822 2.24835C15.0821 2.24834 15.0819 2.24831 15.0717 2.37115L15.0819 2.24831L15.0768 2.24756H0.0292969ZM8.47902 5.58454V5.53819C8.46755 5.51157 8.45741 5.4912 8.44903 5.47593C8.43807 5.45597 8.43017 5.4448 8.4263 5.43977C8.4245 5.43745 8.42358 5.43642 8.42358 5.43642L8.4247 5.43756L8.42587 5.4387L8.42665 5.4394L8.42708 5.43979L8.42728 5.43999C8.42739 5.44009 8.42751 5.44019 8.47902 5.33735C8.53051 5.23452 8.53066 5.23462 8.53077 5.23473L8.531 5.23494L8.53152 5.2354L8.53258 5.23637L8.53495 5.23867L8.53758 5.24132L8.54076 5.24466C8.54505 5.24932 8.55018 5.25532 8.55604 5.26294C8.56778 5.27819 8.58238 5.29985 8.59898 5.33009L8.6029 5.33735H10.429V13.7416H11.5305L11.5332 13.7405C11.5426 13.7368 11.5571 13.7307 11.5758 13.7218C11.6133 13.704 11.6679 13.6749 11.7338 13.631C11.8658 13.5432 12.0429 13.3961 12.2204 13.1598C12.3948 12.9277 12.4805 12.6977 12.523 12.5284C12.5442 12.4435 12.5546 12.3736 12.5597 12.326C12.5623 12.3022 12.5635 12.2841 12.5641 12.2725C12.5642 12.2695 12.5643 12.267 12.5644 12.2649C12.5645 12.2629 12.5645 12.2614 12.5646 12.2602L12.5646 12.2585V5.33735H15.1514C15.1528 5.33676 15.1544 5.3361 15.1561 5.33535C15.159 5.33411 15.1622 5.33264 15.1659 5.33095C15.1833 5.32288 15.2091 5.30963 15.2405 5.28963C15.3033 5.24955 15.3878 5.18285 15.4724 5.07725C15.6393 4.86896 15.8145 4.49997 15.8145 3.85425C15.8145 3.21462 15.6202 2.88094 15.4352 2.70308C15.3406 2.6122 15.2457 2.55949 15.1744 2.52959C15.1388 2.51469 15.1095 2.50562 15.0895 2.50034C15.0795 2.49771 15.0719 2.49604 15.0671 2.49506L15.0655 2.49474H0.215006V5.21376H4.95389L4.95718 5.21408L4.95057 5.33735C4.95718 5.21408 4.9571 5.21407 4.95718 5.21408L4.9575 5.2141L4.95793 5.21415L4.95916 5.21428L4.96302 5.21474C4.96623 5.21514 4.9706 5.21574 4.97613 5.21662C4.98721 5.21837 5.0028 5.22122 5.0223 5.22572C5.06125 5.23472 5.11595 5.25036 5.18115 5.27722C5.3114 5.33089 5.48468 5.42977 5.6579 5.61095C6.00828 5.97736 6.34339 6.66424 6.34339 7.93278C6.34339 9.19829 6.03344 9.9414 5.71262 10.3684C5.55328 10.5805 5.39349 10.7116 5.27271 10.7899C5.21229 10.8291 5.16151 10.8552 5.12522 10.8716C5.10707 10.8799 5.09253 10.8857 5.08217 10.8896C5.07857 10.8909 5.07547 10.8921 5.0729 10.893L5.06986 10.894L5.06623 10.8952L5.06503 10.8956L5.06463 10.8957C5.06454 10.8958 5.06431 10.8958 5.04342 10.7754L5.06431 10.8958L5.05401 10.899H2.44351V8.92152H0.30786V13.7416H5.4147H5.41499L5.4167 13.7416C5.41839 13.7416 5.42111 13.7415 5.42483 13.7413C5.43224 13.741 5.44369 13.7404 5.45881 13.7392C5.48903 13.7367 5.53397 13.7317 5.59109 13.7214C5.70541 13.701 5.86818 13.66 6.05946 13.5777C6.44179 13.413 6.93755 13.0834 7.38891 12.4225C7.85318 11.7428 8.08138 11.3776 8.2283 11.0918C8.34599 10.8629 8.41159 10.6852 8.50636 10.4285L8.50676 10.4274C8.52966 10.3654 8.55424 10.2988 8.58169 10.2258C8.84727 9.51872 8.85088 9.05785 8.75783 7.32363C8.71178 6.46576 8.6201 5.98465 8.54337 5.72203C8.52722 5.66678 8.51182 5.62147 8.49777 5.58454H8.47902Z" fill="#458FF6"/>
<path d="M14.6764 13.9888C15.0861 13.9888 15.4182 13.6048 15.4182 13.1311C15.4182 12.6574 15.0861 12.2734 14.6764 12.2734C14.2667 12.2734 13.9346 12.6574 13.9346 13.1311C13.9346 13.6048 14.2667 13.9888 14.6764 13.9888Z" fill="#458FF6"/>
<path d="M8.47945 5.59304V5.54684C8.46796 5.52031 8.45781 5.50001 8.44941 5.4848C8.43844 5.4649 8.43053 5.45377 8.42666 5.44876C8.42485 5.44644 8.42393 5.44542 8.42393 5.44542L8.42505 5.44655L8.42623 5.44769L8.427 5.44839L8.42743 5.44877L8.42763 5.44897C8.42775 5.44907 8.42786 5.44917 8.47945 5.34669C8.53102 5.2442 8.53116 5.2443 8.53128 5.24441L8.5315 5.24462L8.53202 5.24507L8.53308 5.24605L8.53546 5.24834L8.5381 5.25098L8.54128 5.25431C8.54558 5.25895 8.55071 5.26493 8.55658 5.27252C8.56834 5.28772 8.58295 5.30931 8.59958 5.33945L8.60351 5.34669H10.4322V13.7225H11.5353L11.538 13.7215C11.5474 13.7178 11.5619 13.7117 11.5807 13.7028C11.6182 13.685 11.6728 13.6561 11.7389 13.6124C11.871 13.5249 12.0484 13.3782 12.2262 13.1427C12.4008 12.9115 12.4867 12.6822 12.5292 12.5134C12.5504 12.4288 12.5609 12.3592 12.566 12.3117C12.5686 12.288 12.5698 12.27 12.5704 12.2584C12.5705 12.2554 12.5706 12.2529 12.5707 12.2509L12.5708 12.2461L12.5709 12.2445V5.34669H15.1613L15.1661 5.34469C15.169 5.34345 15.1722 5.34199 15.1759 5.3403C15.1933 5.33226 15.2192 5.31906 15.2506 5.29912C15.3135 5.25918 15.3981 5.19271 15.4829 5.08746C15.65 4.87988 15.8254 4.51213 15.8254 3.86859C15.8254 3.23112 15.6308 2.89856 15.4455 2.72131C15.3509 2.63073 15.2558 2.5782 15.1844 2.5484C15.1488 2.53356 15.1194 2.52451 15.0994 2.51926C15.0894 2.51663 15.0818 2.51496 15.077 2.51399L15.0754 2.51367H0.203613V5.22351H4.94928L4.95257 5.22383L4.95289 5.22385L4.95332 5.2239L4.95455 5.22403L4.95842 5.22449C4.96163 5.22488 4.96601 5.22549 4.97155 5.22636C4.98264 5.22811 4.99826 5.23094 5.01778 5.23543C5.05679 5.2444 5.11156 5.25999 5.17686 5.28676C5.3073 5.34024 5.48082 5.43879 5.65429 5.61936C6.00518 5.98454 6.34076 6.6691 6.34076 7.93335C6.34076 9.19459 6.03037 9.93519 5.70909 10.3608C5.54953 10.5721 5.38951 10.7028 5.26855 10.7809C5.20804 10.8199 5.15719 10.8459 5.12085 10.8623C5.10268 10.8705 5.08812 10.8763 5.07774 10.8802C5.07413 10.8815 5.07103 10.8826 5.06846 10.8835L5.06542 10.8846L5.06178 10.8858L5.06057 10.8861L5.06017 10.8863C5.06009 10.8863 5.05986 10.8864 5.03893 10.7663L5.05986 10.8864L5.04954 10.8895H2.4353V8.91875H0.2966V13.7225H5.41074H5.41103L5.41275 13.7225C5.41444 13.7225 5.41716 13.7224 5.42089 13.7223C5.42831 13.722 5.43978 13.7214 5.45491 13.7201C5.48518 13.7176 5.53018 13.7126 5.58739 13.7025C5.70187 13.6821 5.86488 13.6413 6.05643 13.5592C6.4393 13.3951 6.93577 13.0666 7.38778 12.4079C7.85272 11.7305 8.08124 11.3665 8.22837 11.0817C8.34623 10.8535 8.41192 10.6765 8.50683 10.4206L8.50723 10.4195C8.53016 10.3577 8.55478 10.2914 8.58227 10.2186C8.84823 9.51393 8.85184 9.05462 8.75866 7.32626C8.71254 6.47128 8.62073 5.99179 8.54389 5.73006C8.52772 5.675 8.5123 5.62984 8.49823 5.59304H8.47945Z" fill="#458FF6"/>
</g>
<defs>
<clipPath id="clip0">
<rect width="16" height="16" fill="white"/>
</clipPath>
</defs>
</svg>
