<svg width="576" height="512" viewBox="0 0 576 512" xmlns="http://www.w3.org/2000/svg">
	<path d="M235.04 259.679H100.64C95.8681 259.679 92 255.812 92 251.04V68.64C92 63.8681 95.8681 60 100.64 60H235.04C239.812 60 243.68 63.8681 243.68 68.64V251.04C243.68 255.812 239.812 259.679 235.04 259.679ZM235.04 451.68H100.64C95.8681 451.68 92 447.812 92 443.04V356.64C92 351.868 95.8681 348 100.64 348H235.04C239.812 348 243.68 351.868 243.68 356.64V443.04C243.68 447.812 239.812 451.68 235.04 451.68ZM475.04 451.68H340.639C335.867 451.68 331.999 447.812 331.999 443.04V260.641C331.999 255.869 335.867 252 340.639 252H475.04C479.812 252 483.68 255.869 483.68 260.641V443.04C483.68 447.812 479.812 451.68 475.04 451.68ZM331.999 155.04V68.64C331.999 63.8681 335.867 60 340.639 60H475.04C479.812 60 483.68 63.8681 483.68 68.64V155.04C483.68 159.812 479.812 163.68 475.04 163.68H340.639C335.867 163.68 331.999 159.812 331.999 155.04Z" stroke="black" stroke-width="40" />
</svg>
